# xmcd
#
# Track frame offsets: 
#        150
#        9562
#        20209
#        32772
#        42464
#        60130
#        77188
#        91963
#        101053
#        108539
#        118183
#        130820
#        139859
#        151260
#        171730
#        181489
#        196350
#        226481
#        243662
#
# Disc length: 3481 seconds
#
# Revision: 0
# Processed by: cddbd v1.5.2PL0 Copyright (c) Steve Scherf et al.
# Submitted via: ExactAudioCopy v1.0b1
#
DISCID=0d0d9713
DTITLE=John Mayall and The Bluesbreakers - Blues Breakers With Eric Clap
DTITLE=ton - Deluxe - Disc 2
DYEAR=2006
DGENRE=Blues
TTITLE0=Crawling Up A Hill (BBC 04-26-65) (mono)
TTITLE1=Crocodile Walk (BBC 04-26-65) (mono)
TTITLE2=Bye Bye Bird (BBC 04-26-65) (mono)
TTITLE3=I'm Your Witchdoctor (mono)
TTITLE4=Telephone Blues (mono)
TTITLE5=Bernard Jenkins (mono)
TTITLE6=Lonely Years (mono)
TTITLE7=Cheatin' Woman (BBC 10-25-65) (mono)
TTITLE8=Nowhere To Turn (BBC 10-25-65) (mono)
TTITLE9=I'm Your Witchdoctor (BBC 10-25-65) (mono)
TTITLE10=On Top Of The World (take 2) (mono)
TTITLE11=Key To Love (BBC 03-14-66) (mono)
TTITLE12=On Top Of The World (BBC 03-14-66) (mono)
TTITLE13=They Call It Stormy Monday (Flamingo Club 03-17-66) (stereo)
TTITLE14=Intro - Maudie (Flamingo Club 04-30-66) (stereo)
TTITLE15=It Hurts To Be In Love (Flamingo Club 04-30-66) (stereo)
TTITLE16=Have You Ever Loved A Woman (Flamingo Club 04-30-66) (stereo)
TTITLE17=Bye Bye Bird (Flamingo Club 04-30-66) (stereo)
TTITLE18=Hoochie Coochie Man (Flamingo Club 04-30-66) (stereo)
EXTD=
EXTT0=
EXTT1=
EXTT2=
EXTT3=
EXTT4=
EXTT5=
EXTT6=
EXTT7=
EXTT8=
EXTT9=
EXTT10=
EXTT11=
EXTT12=
EXTT13=
EXTT14=
EXTT15=
EXTT16=
EXTT17=
EXTT18=
PLAYORDER=
